<svg xmlns="http://www.w3.org/2000/svg" width="284.929" height="284.929" viewBox="0 0 284.929 284.929">
	<path style="fill:rgba(255, 0, 0, 0.7);" d="M267.808 117.053c-1.902-1.903-4.093-2.853-6.57-2.853-2.47 0-4.66.95-6.563 2.853l-112.21 112.204L30.263 117.05c-1.903-1.903-4.093-2.853-6.567-2.853-2.475 0-4.665.95-6.567 2.853L2.856 131.327C.95 133.23 0 135.42 0 137.893c0 2.474.953 4.665 2.856 6.57L135.9 277.51c1.9 1.902 4.092 2.853 6.566 2.853s4.66-.95 6.562-2.854l133.054-133.047c1.902-1.903 2.847-4.093 2.847-6.565 0-2.474-.952-4.66-2.848-6.567l-14.274-14.277z"/>
	<path style="fill:rgba(255, 0, 0, 0.7);" d="M135.9 167.877c1.9 1.902 4.092 2.85 6.566 2.85s4.66-.947 6.562-2.85L282.082 34.83c1.902-1.904 2.847-4.094 2.847-6.568s-.952-4.665-2.848-6.567L267.808 7.417c-1.902-1.903-4.093-2.853-6.57-2.853-2.47 0-4.66.95-6.563 2.853l-112.21 112.205L30.263 7.417c-1.903-1.903-4.093-2.853-6.567-2.853-2.475 0-4.665.95-6.567 2.853L2.856 21.695C.95 23.597 0 25.785 0 28.262c0 2.478.953 4.665 2.856 6.567L135.9 167.876z"/>
</svg>
